<svg xmlns="http://www.w3.org/2000/svg" xmlns:xlink="http://www.w3.org/1999/xlink" width="50" zoomAndPan="magnify" viewBox="0 0 37.5 37.499999" height="50" preserveAspectRatio="xMidYMid meet" version="1.0"><defs><g/><clipPath id="bc7b75b4db"><path d="M 5 0 L 33 0 L 33 37.007812 L 5 37.007812 Z M 5 0 " clip-rule="nonzero"/></clipPath><clipPath id="89538a3486"><path d="M 0 0 L 37 0 L 37 37.007812 L 0 37.007812 Z M 0 0 " clip-rule="nonzero"/></clipPath></defs><g clip-path="url(#bc7b75b4db)"><g fill="#ffffff" fill-opacity="1"><g transform="translate(0.784853, 37.10776)"><g><path d="M 8.703125 -32.90625 L 8.703125 -20.515625 L 29.21875 -20.515625 L 29.21875 -16.453125 L 8.703125 -16.453125 L 8.703125 -4.015625 L 31.671875 -4.015625 L 31.671875 0 L 4.515625 0 L 4.515625 -36.921875 L 31.671875 -36.921875 L 31.671875 -32.90625 Z M 8.703125 -32.90625 "/></g></g></g></g><g clip-path="url(#89538a3486)"><g fill="#ffffff" fill-opacity="1"><g transform="translate(-3.725888, 37.10776)"><g><path d="M 40.4375 -36.921875 L 40.4375 0 L 36.25 0 L 36.25 -30.5625 L 22.578125 -13 L 8.703125 -30.5625 L 8.703125 0 L 4.515625 0 L 4.515625 -36.921875 L 9.375 -36.921875 L 22.578125 -19.40625 L 35.578125 -36.921875 Z M 40.4375 -36.921875 "/></g></g></g></g></svg>